<?xml version="1.0" encoding="UTF-8"?>
<svg id="a" data-name="Camada 1" xmlns="http://www.w3.org/2000/svg" width="323.5373mm" height="343.2356mm" viewBox="0 0 917.1135 972.9514">
  <path d="M23.0184,335.8915l-.1938,3.3615c-34.0412,51.7137,26.7463,107.5347,70.2018,130.4051l2.9558,3.8431c2.7812,1.9941,2.6214,4.2793-.9838,4.0705-33.2823-16.3537-64.4179-39.9021-82.0579-72.9598-13.1041-24.5574-12.5438-54.0526,6.0988-73.5564,2.3622-1.8679,5.8329,2.6008,3.979,4.8359Z" fill="#e3a290"/>
  <path d="M145.9426,277.6787c3.3069-1.347,6.7205,2.5744,4.0486,4.9962l-1.7891,3.2048c-24.666,13.9684-35.8147,42.1288-40.0346,68.9229-1.3074,5.0031-2.1926,4.7049-5.643,1.4726-15.0596-26.5203-51.0966-43.6804-76.314-20.7475l-3.1922.3638-3.979-4.8359c9.3006-9.7302,22.0411-14.3294,36.0709-13.6539,20.3653.9806,37.5765,13.115,48.4009,30.3798,4.4755-29.5389,17.3448-56.6549,42.4314-70.1028Z" fill="#e3a290"/>
  <path d="M188.4896,444.1877c-10.9803,17.3964-23.5652,33.6419-38.2652,49.8969,24.5051,5.603,48.0243,7.9292,71.6822,7.7684l1.2114,1.7445,14.6186-.3449,1.4483,1.9253c-30.3722,1.5216-60.9994-.2669-91.1888-8.7207-10.1419,11.4058-20.5497,21.4933-31.8144,30.7918-2.2189,1.2209-2.5027.8528-2.3302-1.5902,10.0903-9.6277,20.5847-18.9643,29.5688-30.256-17.6193-4.4306-33.2735-10.3878-48.4219-17.8311,1.015-1.2079,1.1307-2.5543.9838-4.0705l5.4678.5285c14.3686,6.5278,29.0345,12.2919,43.9977,17.2923,11.7656-14.2159,22.7401-29.0147,32.9232-44.3964,1.3631-1.8963,3.3097-3.2701,5.2228-4.568,1.4918-2.517,5.2674-1.0943,4.8958,1.8301Z" fill="#e3a290"/>
  <path d="M382.188,462.4136c-2.704.7683-3.5584-1.1902-2.9734-3.7657,35.3515-19.2688,68.1616-42.6359,102.1503-65.3162,35.3393-23.5815,74.2661-44.4405,119.0039-47.1983-58.5,8.1667-96.6003,36.0772-146.4671,70.7634-23.5866,16.4063-46.9241,32.0498-71.7137,45.5168Z" fill="#e3a290"/>
  <path d="M218.9073,306.744c16.4023,44.7764-5.283,98.2708-30.0083,137.4437l-4.8958-1.8301.069-3.9738c21.713-37.315,40.8114-82.4459,28.2171-125.9094l.7693-3.9217c-1.1709-3.8189,4.1078-5.1994,5.8487-1.8087Z" fill="#e3a290"/>
  <path d="M379.2146,458.4699c1.3528.8822,2.2444,2.1161,2.9734,3.7657-44.1728,23.9969-92.6667,40.5584-143.003,42.7644l-19.2596.2148c.3882-2.1373,1.4443-2.4037,1.9814-3.5398,55.4928-.3772,108.7194-16.7214,157.3079-43.2051Z" fill="#e3a290"/>
  <path d="M218.4979,306.744c-2.2728-.011-4.2345.0166-5.8487,1.8087l-2.7219-1.4632c-9.1548-22.6571-34.3199-33.8908-56.8969-23.6292l-3.0393-.7853c-1.077-2.2069-2.1826-3.8269-4.0486-4.9962,13.8719-7.4362,29.5457-8.616,45.2244-1.9577,12.5291,5.3207,22.2462,17.1424,27.3309,31.023Z" fill="#e3a290"/>
  <path d="M639.8003,781h-139.8963l.0031-1,286.1911-.0002c-.1476.622-.1725,1.2456-.0051,2.0002l-146.2927-1Z" fill="#e3a290"/>
  <path d="M282.9774,781h-139.8963l.0031-1,286.1911-.0002c-.1476.622-.1725,1.2456-.0051,2.0002l-146.2927-1Z" fill="#e3a290"/>
  <path d="M478.008,780.7266l-12.631,14.1903-13.1993-13.9127c-3.2497-3.4253-.9784-9.2379,2.89-11.1915,3.9438-1.9917,7.8251,1.3667,10.4165,4.062,2.3145-3.2308,6.0526-5.6823,9.5884-4.2348,3.9386,1.6124,6.2974,7.3097,2.9354,11.0867Z" fill="#e3a290"/>
  <path d="M473.589,962.2991l-10.1958,10.6524-10.3224-9.974c-2.8978-2.8-1.9931-7.3611.7877-9.6038,3.0705-2.4763,7.0545-.0804,9.5207,2.3512,1.9674-1.9722,5.131-4.7926,8.9137-2.5797,2.2248,1.3015,4.2009,6.1192,1.2962,9.1539Z" fill="#e3a290"/>
  <path d="M584.9646,677.244c2.6707,23.7394,4.2705,46.3147-12.4562,47.1766-6.6174.341-14.3924-3.862-14.5053-13.4841l-.3768-32.1166,2.2228-.0908.9255,29.7526c.251,8.0699,6.0349,12.6624,11.6231,12.4695,16.7625-.5785,7.1825-28.8528,12.5669-43.7072Z" fill="#151515"/>
  <path d="M282.3944,724.2737c-5.8909.0118-14.905-1.5197-14.4412-10.8288,7.0346,6.9342,15.2137,11.1411,20.9911,3.1947,10.7706-14.8141-24.8004-11.3318-19.7702-29.2833,1.7131-6.1137,6.0557-8.8982,10.4128-8.9397,4.7443-.0453,12.3037.1487,11.9838,9.2927-6.2642-5.8723-14.0445-8.828-18.6143-1.1666-7.6733,12.8645,19.4969,9.2603,20.3851,23.6344.472,7.6385-3.4797,14.0817-10.947,14.0967Z" fill="#0b0b0b"/>
  <path d="M353.6118,723.9692l-.661-20.9692-21.0918-.0073-.7087,21.0073-2.1472.0037.0422-45.5096c.6768.1775,1.6338.1533,2.0816.05,1.4769,6.4899.3039,13.1619.6847,20.4025,7.3623.9035,14.4078,1.2559,21.2746-.2592.3008-7.6744-1.2329-14.3643.9495-20.2518.4023.1254,1.292.2608,1.9674.209l.0049,44.7677-2.3962.5569Z" fill="#020202"/>
  <path d="M451.5076,724.1686c-6.3025.6228-15.8689-1.0334-14.8864-10.6935,4.7229,3.5439,7.6157,7.4781,12.0546,7.5372,3.8677.0515,9.1216-1.642,9.6229-8.401.9351-12.6076-20.8813-7.3743-21.1629-21.6927-.1324-6.7346,4.184-12.0209,9.9136-12.4611,5.0629-.389,12.7237.3726,13.376,8.4684-9.2605-5.9007-18.0417-7.3261-19.7471,1.023-2.7819,13.6189,19.7397,7.6039,20.8432,22.0127.5618,7.3356-3.0326,13.5172-10.0138,14.2071Z" fill="#0a0a0a"/>
  <path d="M118.0394,709l-118.0394-.1232,1.053-1.8768,116.4529-.0759c.6524.561.6716,1.3683.5335,2.0759Z" fill="#e3a290"/>
  <path d="M917.0719,709l-109.118.0013c.0934-.6682.0887-1.366-.0067-2.0013l108.5905-.0854c.6119.5744.6263,1.3856.5342,2.0854Z" fill="#e3a290"/>
  <path d="M168.8331,722.9736l-22.83.8234.631-45.1098c.7128.2059,1.658.2234,2.369.0514l.5546,41.2614,18.6266.0968c.7557.7718.7322,2.1344.6488,2.8767Z" fill="#2b2a2b"/>
  <path d="M508.0031,723.9097l-.6307-41.3331c-5.0622-.2587-9.5533.8369-13.6407-.7316.0727-.5333.0693-1.7312-.0037-2.2814l30.3357-.6458c.5171,1.07.7567,2.051.7471,2.1913-4.1631,3.1012-8.9655.9829-13.8077,1.35l-.1073,40.7272c-.9057.7292-2.0866.7773-2.8927.7234Z" fill="#141414"/>
  <path d="M116.1818,527.2491c-22.1972,18.3228-46.6123,36.0772-73.3017,46.5715,26.0674-14.4829,50.1315-28.2771,70.9715-48.1617,1.1377.3576,1.8685.7018,2.3302,1.5902Z" fill="#e3a290"/>
  <path d="M597.1459,962l-101.3081.2401-.5988-1.2401,102.0074-.0863c.9286.6434-.2321,1.2119-.1006,1.0863Z" fill="#e3a290"/>
  <path d="M427.3201,962l-101.3081.2401-.5988-1.2401,102.0074-.0863c.9286.6434-.2321,1.2119-.1006,1.0863Z" fill="#e3a290"/>
  <path d="M691.0031,723.8986v-45.2282l2,.1042v44.2794c-.941.7786-2.0121.8952-2,.8446Z" fill="#151516"/>
  <path d="M724.8553,863.3806c5.609-13.4783,13.372-25.4206,23.4698-35.9971-5.327,13.8738-14.0348,25.1596-23.4698,35.9971Z" fill="#f8f3f1"/>
  <path d="M667.9861,849.1948c3.1749-7.764,7.402-14.3886,13.1434-20.4417-3.3044,7.8652-8.0826,13.9073-13.1434,20.4417Z" fill="#f1e1db"/>
  <path d="M828.9852,884.0377c-1.7098-5.7154,1.9459-10.5536,3.598-14.576-9.4898-2.7217-14.1565-3.3809-20.3813,2.8363l-18.7262,14.1829c-2.0119-3.5828-5.0868-3.3326-7.4742-5.116,4.1541-1.9597,11.9626-9.6835,8.1237-13.2266-9.0997-8.3983-25.0108,19.2913-44.1053,16.0467-2.9713-.5049-2.012-6.4652-.2016-6.9733l7.0957-1.9913c2.5916-.7273,4.4014-2.7017,5.4357-4.4914,1.1697-2.024-.0609-4.1527-2.1766-4.3316-8.5516-.723-21.0233,21.3605-41.8005,22.7217-8.1368-18.1709,30.7799-39.5405,32.5403-66.1965-18.0229,11.1954-23.1265,32.196-34.2328,48.5374-5.8299,8.5778-36.9139,20.4066-30.7781,6.9204,1.0118-2.224,17.2318-3.8847,13.6125-10.2243-2.8303-4.9578-11.8323,1.1544-13.5065,5.6489l-15.2915,2.9089c1.8809-3.5683,1.7898-9.0565-1.8145-9.4692-6.4034-.733-10.4505,5.0794-14.8995,8.9777,6.5781-19.5932,25.9083-31.8208,29.6571-53.3368-18.0313,20.2122-29.9554,45.5644-40.4445,69.453,10.3278-8.4619,12.7435-21.507,25.6334-23.537,2.5316,14.9396-13.2544,10.1569-18.0848,19.9914,13.3607,5.5786,12.6314-12.4964,33.3207-12.4634-1.1926,3.4406-1.8209,6.2029-.5258,8.651,3.4965,6.6096,22.4013-3.4889,32.3662-9.3811l-1.52,9.7607c-1.7468,11.217,19.2731,2.7993,31.6458-7.5296.625,26.4163,34.9962-11.0251,47.2613-8.3416-1.8922,8.2687-9.8455,10.0245-14.2035,15.6588,3.4372,1.4677,5.1584-1.3349,7.2484-1.1951,2.136.1428,4.4355,1.5538,4.6299,4.2416-12.2288,7.4542-39.4117,31.127-32.6371,39.1481,7.7758,9.2064,35.4125-17.848,36.2095-39.5494l11.5483-7.659c-.3925,2.8921-.5318,5.2213.8224,6.3511,3.3852,2.8241,13.4343-6.2906,19.0404-10.494-.1475,3.9031-.7557,6.7195.75,8.8181,3.8638,5.3854,23.1924-4.3542,29.2529-12.4789-10.0153,4.1025-16.298,13.0294-26.9876,11.7077ZM752.5676,873.0052l2.6838-2.6161,2.2577-1.4034c1.0811-.672,2.6779.0021,2.442,1.2602-.1519.8099-1.3735,1.9412-2.4589,2.4318l-3.6638,1.6559c-1.1016.498-2.6814.0566-1.2608-1.3283ZM689.6167,873.0715l3.3388-2.9497,2.5279-1.2938c1.1255-.576,2.6396-.2696,2.1523,1.3763-.2125.7175-1.2252,1.7993-2.7053,2.4641l-3.8832,1.7441c-1.2668.569-2.7899-.1401-1.4305-1.341ZM654.0753,887.6318c2.8436-2.2213,6.1337-4.7793,9.8451-5.4672-2.5892,2.8776-5.1628,5.8216-9.8451,5.4672ZM760.2829,926.0135c-5.009-6.9011,18.5378-28.5017,31.0651-35.4657-1.2954,18.6136-26.3317,41.9871-31.0651,35.4657ZM808.1897,884.4227c1.9382-7.6807,9.7889-17.556,19.1562-13.9732-4.7291,6.283-10.8942,11.6611-19.1562,13.9732Z" fill="#e3a290"/>
  <path d="M111.4115,874.3042l22.4105-37.6516,2.0944,1.1358-22.4556,38.4125c26.4276.5626,73.899-26.1259,64.4344-43.5227-12.596-23.1527-102.9079,6.3197-92.2205,32.7104-6.6501-1.9098-4.6656-10.8306.1732-15.3471,31.5329-29.4328,88.0076-35.349,94.2572-17.5208,7.7291,22.0487-38.3251,43.4961-63.6506,45.5485,17.0865,15.3085,35.2357,28.0561,54.9803,35.7194-24.0361-3.9381-40.1121-21.7684-59.3437-34.7256l-23.3105,42.8684c2.6997-15.6997,13.6329-27.8289,19.3167-42.2353l-3.7565-1.6114c-1.6366-.702-.8172-3.5819.96-4.3541,1.2227-.5313,3.2183-.8503,6.1106.5735Z" fill="#e3a290"/>
  <path d="M251.2461,863.9176c6.1218-13.1272,13.405-25.7932,24.1672-36.5068-5.3696,14.1694-14.725,25.0202-24.1672,36.5068Z" fill="#f9f4f2"/>
  <path d="M379.8614,873.9734c-3.3831-.1131-4.1036-4.6218-6.5457-7.1105-6.9786.6571-12.1794,6.3725-15.9764,11.3312.1288-6.6179,8.6049-9.4811,6.3455-16.7687-7.6938,12.6525-19.0493,21.8739-33.2537,22.8135-1.3846-6.5127,1.9841-10.778,4.0997-14.6622-20.0246-9.4963-27.9418,16.7939-58.3402,16.369-4.0157-8.7727,7.0724-17.3646,14.2924-17.083.688.239-.4085,3.1768-.0427,3.7422.5404.8354,2.0073.0115,2.1041-.678,2.7744-19.7527-30.3076,17.5682-47.2449,17.2248-9.5491-17.2271,30.9931-39.4959,32.501-66.029-16.9396,11.4332-24.5601,31.4497-33.7815,48.3748-6.5943,6.1469-14.9725,12.4831-24.7687,12.6368-2.4639-5.8704,1.7516-10.4258,3.2256-14.5458-10.4982-3.8958-15.8156-2.5033-22.8228,3.9608-6.7112,6.1911-23.7891,14.1653-27.7579,10.0718-1.3611-1.4039-.9174-3.754-.246-5.418,1.2413-3.0765,5.8281-.5633,12.2947-5.605,1.2696-.9898,2.8549-4.6524.3905-5.7008-5.3741-2.2863-9.5429,2.5449-12.4493,5.8704-2.5894,2.9627-5.7575,11.1429-.9489,13.1622,8.6766,3.6436,18.0384-4.5338,26.2708-7.8002-1.1873,2.1165-2.6504,8.6016.7502,8.4951,7.5407-.2363,12.3612-6.7468,18.0762-10.9548-.0942,3.3809-.9722,6.7833.7441,8.9785,4.4362,5.6742,17.4126-3.7592,25.1508-7.6876-.7571,4.9324-1.9603,8.4487.0045,11.5852,4.3843,6.999,21.4399-4.0276,30.9779-10.6267-.6459,2.8411-1.0268,5.1514.1605,7.4249.8473,1.6224,3.4125,2.0951,5.0674,3.3486-.7562,1.1342-2.5745,3.7923-1.5732,4.2616l3.8875,1.822c-.3307,4.7769-6.6374,1.6391-5.5917,3.4727,1.4999,1.2388,3.4729,1.4468,5.1083.4547,2.3772-2.2681,3.8267-2.4692,1.7849-5.6343-.5044.2216-3.926-.4727-3.3354-3.2853,11.2668-3.1021,21.1994-7.4255,30.6799-12.6092-1.6965,2.8264-3.4141,8.9241-.4733,9.2686,8.4072.1649,13.7696-7.1451,19.3048-11.168-.507,3.6045-1.2972,7.3228.1636,9.2546,4.3005,5.6874,17.0377-2.6147,26.1006-7.8988-.845,5.4058-6.4041,8.6913-4.1179,14.4584,7.348-8.1211,11.0174-18.0047,21.4748-22.4555,1.9385,4.1309,4.2214,7.4125,8.1608,7.2288,4.4578-.2078,9.636.5167,11.722-3.5881-4.2993,1.1432-7.5671,1.8323-11.5732,1.6985ZM174.945,873.4089l3.127-3.215,2.4147-1.3527c1.1329-.6346,2.6198-.0121,2.2955,1.3733-.1833.783-1.0933,1.9545-2.6247,2.6076l-4.0374,1.7216c-1.2512.5335-2.5828.3124-1.1752-1.1348ZM198.3679,884.3056c1.7704-8.1184,10.9459-18.7465,18.8265-13.3478-5.1907,5.9362-11.01,11.5759-18.8265,13.3478ZM309.5304,884.2782c2.2573-8.4902,12.2245-19.0422,19.5727-13.1414-5.9479,5.4426-11.4073,11.8874-19.5727,13.1414Z" fill="#e3a290"/>
  <path d="M212.6492,308.5527c15.7102,42.8195-5.7938,95.8755-29.0554,133.8049-11.0619,18.0371-23.4696,34.5401-37.6022,50.6605-17.521-5.3318-34.0044-11.1468-50.0093-19.5168-30.7552-16.0839-58.9651-38.2369-75.5453-68.408-12.5929-22.9154-14.2811-49.9888,2.5814-69.2017,10.7199-11.3183,25.0283-15.1984,40.2446-11.9533,18.7968,4.0087,32.7132,17.0485,42.4517,33.7588,4.3248-31.0344,17.0467-61.4885,44.2765-75.0221,25.6661-12.7564,53.0804-.2267,62.658,25.8778Z" fill="#fdfdfd"/>
  <path d="M594.2899,883.9365c-2.0442-5.6618,1.5195-10.6151,2.5653-14.6557-19.6077-8.0677-21.8226,11.8094-45.6955,15.0295-3.7308-5.6071,2.51-9.6006,3.0256-15.6984-9.1419,4.8123-14.3848,13.7418-24.6078,15.88-2.8167-6.7041,5.2906-9.8182,5.7867-17.6884-11.1036,9.4658-21.3632,22.4809-37.2497,24.3221.526-15.4682,11.2404-26.7568,17.4248-40.4051,9.8322-3.3552,20.0717-.7716,31.1086-1.4841-9.4801-2.8565-18.9926-.3559-28.7449-1.5811,2.4319-5.8008,7.5632-10.0752,8.9175-15.9124l-1.7676-.9604-10.4025,16.8823-22.7213,2.2152c-.0701.3616.1688.9302.6154,1.1742l20.5159-1.0471c-6.4673,11.6403-22.424,36.6014-15.6309,42.0072,6.2158,4.9465,22.2601-9.1121,30.4095-15.7856-1.1497,3.3233-2.2711,6.5455-.8599,8.3887,1.6194,2.1153,4.9679,1.7874,7.0471.3928l15.0222-10.0763c-1.3858,3.2341-2.4235,9.4996,1.5158,10.2796,7.3351,1.4525,13.846-3.4235,20.5914-6.4517-.2585,2.5567-1.3831,5.283-.2961,6.8889,2.9409,4.345,13.2282-4.1928,20.2197-10.0576-.2032,3.4358-.8218,7.1395.6295,9.1361,3.6526,5.0248,23.0912-4.3868,29.3133-12.4623-9.8105,3.8528-16.2247,12.5952-26.7321,11.6695ZM572.7662,884.1777c2.3093-8.7474,11.7172-18.8845,19.2638-13.1157-5.6822,5.8555-11.27,11.6903-19.2638,13.1157Z" fill="#e3a290"/>
  <path d="M764.9347,695.1425c-2.0408-11.8965-11.5437-19.7543-22.13-15.9803-10.3666,3.6957-14.3633,17.0814-12.0353,28.7131,2.484,12.4117,12.4635,18.7755,21.9044,15.6855,9.8284-3.2167,14.4088-15.8981,12.261-28.4184ZM751.1316,720.119c-7.0682,2.324-14.9355-2.9819-17.0289-12.684-2.0557-9.5273.9646-21.4624,9.6286-24.599,8.8974-3.2211,16.3177,3.6938,18.0994,13.5446,1.7875,9.8826-2.0607,20.8981-10.6992,23.7385Z" fill="#090909"/>
  <path d="M650.8178,687.9633c-5.1262-9.6965-14.9465-10.0293-26.0818-8.7261l-.7328,44.139c9.1784.5611,16.5176,1.6301,22.9935-4.1359,7.8235-6.9658,8.7864-21.8851,3.8212-31.277ZM628.0031,719.8317l-.1886-37.1352c8.1699-.6668,15.2279-.6932,19.7037,5.8237,4.2687,6.2153,4.6248,16.6414.9999,23.5338-3.9931,7.5925-10.8147,8.8118-20.515,7.7777Z" fill="#090909"/>
  <path d="M442.7525,884.0309c-2.2245-4.8584.8174-9.9351,3.5431-14.6819-8.0811-1.0845-12.5251-4.6135-18.3646.5173-4.5116,3.9641-11.6844,10.1947-8.0043,16.4847,7.3867,1.5128,14.2099-6.8097,19.9605-11.3127-.1142,3.0252-1.2089,6.5089-.0686,8.812,3.4546,6.9774,21.9814-3.3204,28.68-10.724-9.8469,3.7729-15.5258,11.567-25.7461,10.9047ZM422.2988,884.3368c-.9417-4.5943,2.9984-8.4825,6.679-11.6651,3.3583-2.9039,7.9648-5.3392,11.6714-1.1437-6.1666,5.1998-10.4369,10.4214-18.3505,12.8088Z" fill="#e3a290"/>
  <path d="M217.5921,676.8696l-16.5521,46.0553c.9259.4583,1.6802,1.0573,1.5892.9894,4.0145-2.7684,3.7892-8.9743,6.269-13.0357,6.6393-.1437,12.4635-1.0457,18.7744.6266.9973,6.3478,1.8459,12.9561,7.2886,12.4785l-17.3691-47.114ZM209.5765,707.1882l8.0227-23.851,8.0404,23.6628-16.0631.1882Z" fill="#090909"/>
  <path d="M486.1428,136.4979c2.4862,37.504,2.2752,72.4521.1347,110.2645-5.8055-30.0078-19.2758-43.0699-49.0371-46.2406-28.0528-2.9887-86.2373-1.5602-86.2373-1.5602l.6713,185.1015c.0334,9.3849,4.2579,17.8271,9.4277,23.5842,6.6442,7.399,16.2276,3.875,25.6989,9.3528l-108.2524.4349c8.1557-6.807,17.6079-2.2279,23.2352-10.1825,3.76-5.315,9.2124-14.2095,9.2193-22.8455l.2712-341.5372c.01-12.5823-4.2669-25.2617-12.6242-32.752-10.7015-9.5913-23.5699-3.2312-36.4061-10.1177h277.9285s7.2024,50.3354,3.2385,76.7255c-4.7544-32.2218-15.9218-53.8947-46.3467-63.2042-18.228-5.5775-36.9371-6.2947-56.7893-6.5213h-77.247c-3.3511.9222-7.8493.6576-9.6597,2.9891-1.6662,2.1458-2.1713,3.897-3.3651,7.6246v171.7319l80.6522-3.1716c32.6224-2.5139,50.0998-16.2652,55.4875-49.6761Z" fill="#040405"/>
  <path d="M497.0031,462.1742c55.0485,7.2028,113.4574,2.8713,134.0146-55.3047,9.7461-27.5811,10.5317-57.608,1.9151-85.6234-17.4798-56.8324-73.7569-63.9303-126.8498-58.2199-6.1374.6601-9.0798,14.8036-9.0798,14.8036l-.5892,100.0644-36.4108,24.8751-.6118-104.9048c-.0683-11.6675-3.3085-22.9457-10.9734-31.0309-8.4783-8.9432-19.7329-2.6143-30.371-9.8337l145.7481.2541c30.926.0539,60.6217,10.7187,82.4998,32.3642,28.4821,28.1792,35.7073,70.6702,21.7813,109.2015-12.2723,33.956-44.2775,58.8493-81.9852,66.2052-28.7891,5.6161-58.1205,3.4911-89.0878,2.6602l.7536,111.7319c.0605,8.9646,4.2272,17.1332,9.0864,22.8858,6.5941,7.8066,16.9788,2.6945,26.0034,9.6971l-104.6105-.7618c19.6351-4.0332,30.6138-11.9772,30.7671-32.14l1.233-162.1301,36.767-24.9401v70.1464Z" fill="#040405"/>
  <path d="M773.0357,115.8731l-2.3238.3919c12.3759.5485,24.782,1.129,37.2183,1.7414,5.0469,1.9426,3.5884,4.1727-1.0951,3.9464l-6.6795-.4289-17.2411-.9717c-83.4134.6238-164.005,31.6813-229.1465,82.2053,13.1503-25.2374,33.7246-45.6053,59.8097-59.7828,50.5201-27.4581,108.4463-40.9994,165.5977-37.6306l10.8223.5578" fill="#e3a290"/>
  <path d="M789.9978,105.9019c27.42,5.1337,54.1899,12.7487,79.1152,27.8655-20.2753-6.6468-89.7301-10.8869-110.9022-12.1435" fill="#e3a290"/>
  <path d="M799.9977,120.9553l-17.2456-.8883,17.2456.8883Z" fill="#e3a290"/>
  <path d="M804.2212,303.0104c-2.7149-1.8069-4.236-3.8104-4.5632-6.0104l1.6158.0075c8.9291,5.6567,18.4122,10.6522,28.7002,13.279l20.2567,3.2676-23.5247-1.0185c.0688.0731-.7497.3756-1.6124.6812" fill="#020101"/>
  <path d="M792.7514,315.9213c4.5589,5.2615,22.2138,17.1629,28.5186,20.0761-9.5699-.7381-17.4817-5.5763-23.8865-10.9165l-4.6322-9.1596Z" fill="#020101"/>
  <path d="M901.8088,244.6374l-2.6062-2.0789c3.9463-2.4731,7.4106-4.7961,12.6533-6.5861-2.8228,4.0503-6.3957,6.4145-10.0471,8.665Z" fill="#020101"/>
  <path d="M825.4801,324.1129c1.7564.4577,3.7801-.4235,5.2302-1.1259,5.1501,1.067,11.3281,2.167,16.8619,2.4988-7.6045,1.2872-15.1667.0879-22.0921-1.3729Z" fill="#020101"/>
  <path d="M861.5906,250.4339c2.9429-1.1244,2.1587-1.4738,1.2799-1.7642,5.4683-.5479,10.5435-2.6836,17.9381-4.6137-4.728,3.4832-9.1559,4.6767-19.218,6.3779Z" fill="#020101"/>
  <path d="M699.0094,298.0128c-.8405,4.9866-3.007,10.187-7.1199,14.1533,2.487-6.3431,5.2913-11.1454,5.8285-17.347.0615,1.2185.2517,2.5297,1.2914,3.1937Z" fill="#020101"/>
  <path d="M685.0031,286.9658l-.0163.9632c-2.3193,3.5579-4.3383,8.2803-9.0226,10.179,3.8308-4.2343,6.2756-8.2356,8.05-13.109-.0127.8503.1228,1.6954.9889,1.9668Z" fill="#020101"/>
  <path d="M751.0834,327.9117c-1.324-1.3951-.7857-1.8975.9553-.9521l8.7142,10.0288c-6.6543-3.3576-6.0524-4.8977-9.6695-9.0766Z" fill="#020101"/>
  <path d="M748.95,322.1572l3.0887,4.8025-.9553.9521c-2.2253-2.5709-4.9767-5.7252-5.9847-9.031,1.6197.3448,2.9963,1.947,3.8513,3.2764Z" fill="#020101"/>
  <path d="M740.9416,311.0675l-.907-2.9052c1.0672-1.7703,1.0867-.1672,1.3464.3037.4921.8922.9907,2.389-.4394,2.6015Z" fill="#020101"/>
  <path d="M671.9736,285.7344c-1.2471,1.7419-2.8657,3.5229-5.0439,2.93l4.9542-3.8808.0898.9508Z" fill="#020101"/>
  <path d="M864.1871,305.8794l-26.4031-4.4389c-17.7693-3.9876-19.4306-8.4405-31.2285-22.5004,6.4303,3.1885,19.0451,15.4119,25.1215,16.6254" fill="#020101"/>
  <path d="M886.4592,285.4176c-4.9767,1.6771-10.394,2.2878-16.2519,1.8323,3.2249-.5053,5.9493-.2954,8.1731.6298-6.1335,1.3274-13.2422.9008-19.8779.1812-7.7764-1.2242-18.9536-2.5875-18.9536-2.5875l-1.4153-6.8359c-.8965.7329,6.3406,6.5883,5.4017,6.039-.8919.2242-1.221-.109-.9877-.999-1.7586-.069-3.5725-.5403-5.1246-1.7703l11.6347,1.7587.7107-.6831c-1.3342-.1188-3.0901.1076-4.3534-1.0852l16.6234,1.7864c.0028-.019.3261-.201.576-.7104l-16.1843-2.9738,15.4754.2256c9.6691-1.1188,19.337-.3395,29.8685-2.8366-4.6806,4.0474-10.2091,2.595-15.4099,3.7319l9.5326,1.0091-7.4996,1.1311c2.9604.7903,6.5676-.4397,8.0621,2.1565Z" fill="#020101"/>
  <path d="M857.9734,280.0199c-1.1829-.0347-2.9227.3493-3.3412-1.046" fill="#bdbebf"/>
  <path d="M846.9908,285.0541c.0451.8129-.6549,1.2152-1.4945,1.0123-.6836-.1652-1.1225-.3795-1.5159-1.0535.8671-.0014,2.2199-.276,3.0105.0412Z" fill="#020101"/>
  <path d="M842.5422,309.4837l9.4207,1.5984,14.9937,1.4783c-27.5531,3.4624-54.1872-8.5967-74.3404-25.9944l-3.6061-.5984-.9038.1506c5.6587,7.2209,11.9495,13.8605,18.8725,19.9187,1.1744.2984,1.9397.822,1.1803,1.8493.4338.8243-.0226.9352-1.3692.3328-7.2338-5.2486-13.306-11.1066-18.8399-18.232-.368.1709-.6703.2853-.7421.2017-10.6004-12.3365-9.5522-13.8906-.0767-.0999.1272.1851.0101.5381-.1768.9391,11.2424,14.7848,26.2161,26.4923,44.2074,31.9591.033,1.5043-1.7104,1.8796-5.2302,1.1259-18.9746-4.0022-33.4504-16.5047-46.6801-30.1527l7.7293,11.1674-10.483-10.1089-.7755.7279,17.4805,20.1746,5.657,7.1565-1.0248,2.0031c-7.4815-6.238-14.776-13.637-19.682-21.9836-.8139-.2133-1.2338.1336-1.2891.9989l5.2227,8.9587c-5.6282-3.8905-6.7122-10.1812-10.9139-15.4381.0821,7.4013,6.3238,11.3024,8.6217,17.245l-10.784-12.783c4.5068,12.4413,15.1753,20.5878,25.1565,30.0734-12.3877-5.903-21.4498-16.0246-28.0804-27.1875-.8307-.1668-1.1988.2395-1.1686,1.139,6.2106,13.2122,14.3761,23.8824,27.2401,31.8496-19.6637-8.1823-32.8378-25.0839-43.6703-41.8393l9.6469,21.0979c-.9214.7591-2.7984-4.2889-2.6554-4.0709l1.5389,2.3459.5205.5888c.4675.5289.5322,1.042,1.2459,1.4989.4581.2933.6331,1.1899-.2682,1.267-.7168.0613-1.0837-1.7066-1.5958-2.2569l-.4676-.5025-1.0084-1.2017c-.1389-.2236-1.008-1.6128-1.1131-1.5921l-10.475-18.3166c4.8016,15.0846,12.5295,28.0445,22.9655,39.0224-10.5591-6.8394-16.471-17.0749-22.3334-27.0104-4.3911.6824-4.6538-19.3097-4.5021-18.3167.5009,3.2795.8768,8.271-.0476,11.1627,1.2511,3.0701.9844,5.2091-.8001,6.4169-.953-2.0233-1.2287-4.4706-3.254-6.305,2.5312,11.9666,6.8657,22.5714,11.9501,33.0711-12.162-11.4091-15.4576-26.7064-20.6471-40.913-.3669,10.9907,5.5865,19.3847,6.4781,28.9919-.1016.0158-.6585-.511-.7068-.6407l-8.4499-23.8921c.2142-.1638-.8502.581-1.0777.7154l2.4732,20.0903c-1.6102-2.2811-1.5054-4.9826-1.9416-7.3378-1.1211-.3129-1.5822.7517-1.3831,3.1938l2.1461,14.9295c-3.942-9.993-5.7977-20.3191-6.7442-30.7794-.4773-3.8544-1.301-5.3684-2.471-4.5418.2093,4.1719-.6322,5.9867-2.5246,5.4444l-.0757-2.1804-.9497-4.1774c-.0165-2.2794-.0717-5.0425-2.0246-7.0887,1.4567,13.5129-.4949,26.3304-7.7116,37.5138,2.7181-10.9976,5.6349-20.9018,3.2055-31.1829-.7275,6.4532-.207,11.1825-1.9728,16.1318-1.0473-1.9021-.4916-4.0429-.3139-5.9635.4367-4.3061.1083-5.7682-.9852-4.3864-.0737,1.3757.2469,2.9237-.7758,4.2068l-.7916-12.4779-1.575,9.3443c-1.1552,1.3329-1.5856.2683-1.2914-3.1937.23-2.6556,1.5788-5.5653.8421-8.9082-2.4956,8.5857-7.2611,16.7623-15.4628,21.1991,6.5951-7.4865,10.7056-13.5728,10.0648-23.3247-1.0699,3.6959-3.8974,1.6994-4.8136-1.526-.5839,2.1674-1.7049,3.7362-3.3629,4.7065-1.327.9599-1.6566.3043-.9889-1.9668l.016-1.0755c-.3276-4.2128-2.0022-7.6827-5.2985-1.9843-1.375,1.5988-3.5255,2.6537-5.1367.9514l4.7183-10.3296-31.4831-7.479,53.9848,4.3217c60.7816,2.5935,115.7611-23.4152,151.1582-73.1913-5.4341,15.8609-14.4322,28.2381-24.2721,41.2857,9.1801,9.028,22.605,12.4324,35.1871,11.1718,3.3962.136,2.9696.7241-1.2799,1.7642,13.1964,1.406,26.171-.4266,38.057-7.8753,2.6-1.0336,3.692-.8176,2.6062,2.0789-17.3157,10.6723-37.6682,12.6373-57.2641,7.0874-1.7877.2185-2.1092.6229-.9644,1.2132,4.618,1.4619,9.3093,2.8282,14.3469,3.6565l-.9749,1.3046c8.0308.4112,15.7719.5862,23.8651-.2914l.97,1.2323c3.7158-.6504,7.4512-1.2612,11.2062-1.8324l2.1364,1.8151,11.7618-4.4137c-18.8582,11.8093-41.4859,16.0325-63.9721,9.4349,1.104,2.7291,4.1055,2.8737,6.3014,3.2708,1.778,2.2543.7951,3.0295-1.7849,1.7646-1.2442.4091-.2147,1.2632,3.0887,2.5622l2.5989-1.6046,14.8158.8057,1.8714,1.4685,25.12-2.3197,1.6377,1.8573c-18.7505,6.9902-38.03,8.7831-56.9797,2.1147-1.5932.1569-1.9165.504-.97,1.0414,5.1053,1.7933,10.2466,3.9634,15.5683,4.1693l3.3412,1.046,4.377.542-.469,1.2609c-5.2275-.8595-10.1642-1.131-14.8099-.8145,1.4528-.99,16.6745.6881,17.065,1.5641,2.0872,4.6813-12.2833,3.345-13.9231.7468.2111.0188.4915.008.6134.085,2.6807,1.6942,8.3008,4.2572-.7793,1.1105-.1656-.0574-.4069-.2331-.5448-.5124-1.2005,1.1892-4.9871.1254-6.9034-.5297-.7291-.2492-.573.0571.3933.5412,1.6526,2.018.5918,3.2583-1.8949,3.2922l-1.269,1.0112c3.1509.7509,5.8599,1.9422,8.1271,3.574l10.9493,2.1137c4.2042.1349,5.8998,1.0109,5.0867,2.628-3.6056.9477-7.3383,1.2044-11.198.7702-13.4259-1.9558-25.5226-7.8316-37.6424-13.4831-3.205-1.2108-5.7024-2.5969-6.5449-4.73-.7914-.0026-.7073.1017-.6896.8895,1.202-.578,1.7043-.1164,1.1411,1.0976-.1206,1.9851.1758,8.1211.6579,10.2085l17.3634,11.837" fill="#020101"/>
  <g>
    <path d="M896.5687,271.6485l-32.9432,3.0422c1.9796-2.5432,4.0771-1.4829,5.4154-2.5062-6.4173.1067-12.2557.4428-18.516-.7431-1.7605-.5683-2.79-1.4223-3.0887-2.5622.7127-.4773,1.3285-.9978,1.7849-1.7646,12.0613,2.1814,23.2377,2.3599,35.1552,1.742l14.1723-2.847c3.8517.2866,7.999-.7658,12.0932-1.7386-4.1403,4.5529-9.4724,5.6624-14.0731,7.3776Z" fill="#020101"/>
    <path d="M895.13,258.8226c-8.6413.5795-17.0779,4.0008-26.102,2.8978,2.9371-1.4204,7.8215-.3675,11.9845-2.4541l-22.7923,1.523,6.7757-1.6581c-10.1545.0762-19.5922,1.1975-27.1658-6.3039,7.7324,2.3218,13.751,3.6532,20.097,3.767,13.958.2504,26.3048-.1415,39.2255-4.387-7.594,7.2493,1.737.8276,5.2302.9372l-7.2529,5.678Z" fill="#020101"/>
    <path d="M744.037,306.9837l4.468,15.1735c-1.237-.0615-2.5207-1.1536-3.8513-3.2764-.9225-3.0255-3.2152-4.7965-4.1571-7.8133.5768-1.6706-.1815-3.0475-.907-2.9052l-.9023-1.9157-2.9569-15.3421c2.3253,1.5361,2.2072,4.7918,3.4175,7.3457l.3871-9.5832c.209,6.7126,3.9022,12.2549,4.5021,18.3167Z" fill="#020101"/>
    <path d="M693.1621,283.7853c-2.5388,10.8403-3.8212,12.7221-9.7722,14.6095,2.0403-5.0279,4.3312-7.426,4.6531-12.7407-1.168,1.2452-1.833,2.0967-3.0738,2.2749-.8681-.287-.8505-.6085.0163-.9632.0704-4.1615,2.8461-7.5786,4.8811-11.6496.5619,5.3504-.4459,9.3075,3.2954,8.4691Z" fill="#020101"/>
    <path d="M684.0127,283.9235l-12.0391,1.8109c-.6433-.1779-.6462-.5009-.0898-.9508.5431-.4254.7953-1.7023,1.6936-1.8931,3.2291-.6857,4.6405-3.5231,6.6866-6.9261,1.6876,1.1219,4.265,2.1222,5.1181,3.121,1.0777,1.2619-.4321,4.0371-1.3695,4.8381Z" fill="#020101"/>
    <path d="M717.9753,297.3708l-1.6216-4.5685-.7199,21.313c-1.5452-5.3047-2.4682-10.486-2.654-15.842,2.5903-3.7355,1.002-7.9564,2.9932-13.1443,1.6562,4.4667,1.6568,8.4226,2.0024,12.2417Z" fill="#020101"/>
    <path d="M777.7016,303.0973l-.8442.9989-8.875-16.848c.1512-.2216.7247-.4241.5379.229l9.1813,15.6201Z" fill="#020101"/>
    <path d="M723.5116,310.0268c-.5358.5927-.8006,1.9379-.9382,3.1938l-2.6782-20.6896.2699-.5742,3.3464,18.07Z" fill="#020101"/>
    <path d="M766.08,304.9648l-1.1686,1.139c-2.3119-4.9181-6.2689-9.2382-7.8815-15.2284,3.8036,4.1721,6.1217,9.1593,9.0501,14.0894Z" fill="#020101"/>
    <path d="M840.0339,273.7632l-.97,1.0414" fill="#9b9c9b"/>
    <path d="M787.4985,289.9869l-.9956,1.0409-7.9786-10.4926c-.2274-.6088-.012-1.1703.4809-1.4842l8.4934,10.9359Z" fill="#020101"/>
    <path d="M703.137,301.3262c.1534-1.658-.5826-3.0903-.9852-4.3864-.3006-2.6992.5716-5.6626,1.4311-8.9925.5877,4.3708,1.0006,9.258-.4459,13.3789Z" fill="#020101"/>
    <path d="M712.9041,296.093c-1.1506-1.1404-.9388-2.68-.9497-4.1774,1.4619.8843.8998,2.7403.9497,4.1774Z" fill="#020101"/>
    <path d="M790.7393,287.6973c1.3653,5.5728,8.1898,8.201,13.3095,11.4846.2304.1177.3007,1.5142-1.3814,1.168,4.9203,5.774,11.2713,9.1801,16.4026,13.9143-.2391.3632-.4717.6422-.6817.6261-1.578-.1211-10.9253-6.1751-12.2035-7.814-4.8381-3.7781-9.9291-7.9237-14.1741-12.4786-1.8226-1.9557-3.5876-3.9591-5.0499-6.2073-.1797-.2762-.0481-.7549.1724-1.2914.3906-.6127,1.0337-1.5305,1.6418-1.7332,1.0263-.3421,2.6471.7979,1.9643,2.3316Z" fill="#020101"/>
    <path d="M788.5586,285.9675c4.5803,8.1817,12.8122,13.0199,19.0516,19.9772-.253.7749-.6161.7912-1.0829.092-8.3843-6.9189-16.8497-13.785-22.3008-23.8688,2.2612.4099,3.5287,2.3644,4.3321,3.7995Z" fill="#020101"/>
    <path d="M757.3696,301.1152c-3.4044-4.4696-6.2088-8.9626-6.4165-14.7476,3.1589,4.5971,5.7738,9.5116,6.4165,14.7476Z" fill="#020101"/>
    <path d="M808.635,278.9043c1.9651,1.7891,1.1929,2.4183-1.1631,1.1754-3.771-3.6272-8.5452-6.984-10.5506-11.9924l11.7138,10.817Z" fill="#020101"/>
    <path d="M847.4362,268.8792c1.0306.266,2.3906,1.6461,3.0887,2.5622-4.8394-.9167-9.8314-2.2108-13.7727-5.2995l10.684,2.7373Z" fill="#020101"/>
    <path d="M808.6129,281.1774l-1.1411-1.0976,1.1631-1.1754" fill="#020101"/>
    <path d="M767.6681,293.828c.7109-1.2311,1.2716-.0674,1.502.1454.3502.3234.618,1.6995-.0761,1.8968-.4427.1258-1.8662-1.2797-1.4259-2.0422Z" fill="#020101"/>
  </g>
</svg>
